<svg width="194" height="182" viewBox="0 0 194 182" fill="none" xmlns="http://www.w3.org/2000/svg">
<path d="M192.006 145.61C192.006 197.249 155.876 177.5 96.5056 177.5C37.135 177.5 0.00556253 194.139 0.00556253 142.5C0.00556253 90.8614 -2.49445 0 98.5056 0C209.506 0 192.006 93.9715 192.006 145.61Z" fill="white" fill-opacity="0.56"/>
<path d="M48.8372 75.3334C48.0175 76.936 46.1686 72.8548 44.9026 71.0307C39.0769 62.637 33.4574 60.5042 31 58.452C38.2653 61.5689 44.7097 68.1214 46.1348 70.1754C47.0864 71.5469 50.6591 74.8691 48.8372 75.3334Z" fill="black"/>
<path d="M52.5318 72.2341C51.595 73.7713 50.0549 69.5638 48.9281 67.6506C43.7432 58.8467 38.2979 56.3017 36 54.0724C43.0133 57.7212 48.9523 64.735 50.2206 66.8894C51.0675 68.3278 54.3831 71.9067 52.5318 72.2341Z" fill="black"/>
<path d="M63.0917 70.6949C61.7248 71.8662 61.564 67.3886 61.0854 65.2204C58.8831 55.2433 54.4942 51.1365 53 48.305C58.5378 53.9471 62.0117 62.4557 62.5501 64.8971C62.9097 66.5271 64.9534 70.9571 63.0917 70.6949Z" fill="black"/>
<path d="M69.0291 72.0811C67.4346 72.9166 68.2805 68.5167 68.2996 66.2964C68.3874 56.0795 65.0297 51.0942 64.2075 48C68.3412 54.7389 69.8215 63.8094 69.7996 66.3093C69.785 67.9785 70.7848 72.7536 69.0291 72.0811Z" fill="black"/>
<path d="M56.9098 70.575C55.7728 71.9706 54.8188 67.5928 53.9626 65.5442C50.0224 56.1173 44.9735 52.8557 43 50.3348C49.4522 54.903 54.3828 62.659 55.3465 64.9657C55.99 66.506 58.7884 70.5023 56.9098 70.575Z" fill="black"/>
<path d="M125.408 68.6332C124.058 69.8238 123.834 65.3489 123.324 63.1878C120.981 53.2429 116.534 49.1987 115 46.3887C120.617 51.9517 124.211 60.4103 124.784 62.8437C125.167 64.4685 127.273 68.8691 125.408 68.6332Z" fill="black"/>
<path d="M130.724 67.9037C129.289 68.9905 129.398 64.5113 129.051 62.3183C127.454 52.2266 123.321 47.8628 122 44.9464C127.188 50.9119 130.143 59.6145 130.533 62.0838C130.794 63.7326 132.567 68.2776 130.724 67.9037Z" fill="black"/>
<path d="M140.983 69.5306C139.281 70.1193 140.773 65.8944 141.123 63.7018C142.731 53.6118 140.152 48.1821 139.8 45C142.884 52.2793 142.998 61.469 142.604 63.9378C142.341 65.5862 142.619 70.457 140.983 69.5306Z" fill="black"/>
<path d="M144.703 73.1724C142.913 73.3653 145.313 69.5817 146.144 67.5229C149.971 58.0493 148.674 52.1802 149.043 49C150.419 56.7851 148.472 65.7668 147.535 68.0847C146.91 69.6324 146.089 74.4416 144.703 73.1724Z" fill="black"/>
<path d="M135.523 68.0548C133.953 68.9365 134.67 64.5138 134.625 62.2939C134.414 52.0788 130.912 47.1936 130 44.1248C134.329 50.7401 136.073 59.7635 136.124 62.263C136.158 63.9319 137.297 68.6757 135.523 68.0548Z" fill="black"/>
<path d="M70.0854 120.837L70.0901 120.856L70.0963 120.875C72.7408 128.902 77.0373 136.443 80.5083 142.536C81.0319 143.455 81.5366 144.341 82.0141 145.19C83.8482 148.454 85.2586 151.146 85.8314 153.141C86.1185 154.14 86.1721 154.891 86.0224 155.423C85.8854 155.911 85.5634 156.27 84.9151 156.483C84.2627 156.698 83.4471 156.662 82.4807 156.345C81.5161 156.029 80.4359 155.443 79.2848 154.609C76.9829 152.942 74.4571 150.327 72.0829 147.071C67.332 140.557 63.2544 131.569 62.7702 122.691C62.3903 115.727 60.144 109.287 57.4592 103.47C56.1166 100.561 54.6614 97.8017 53.2721 95.2098C53.0738 94.8399 52.8769 94.4735 52.682 94.1106C51.5085 91.9266 50.404 89.871 49.4712 87.9386C48.383 85.6845 47.542 83.6254 47.1033 81.7594C46.665 79.8949 46.6366 78.2584 47.1338 76.828C48.1177 73.9974 51.2711 71.706 58.3552 70.2117C64.9459 69.344 68.3259 70.3356 69.9938 72.4749C70.8383 73.5581 71.295 74.9936 71.4648 76.7832C71.6346 78.5738 71.5137 80.679 71.2368 83.0664C71.0152 84.9776 70.6935 87.0615 70.3497 89.289C68.9833 98.1398 67.2667 109.26 70.0854 120.837Z" fill="#16CE60" stroke="black"/>
<path d="M132.609 119.721L132.609 119.741L132.61 119.76C133.086 128.199 135.284 136.595 137.059 143.378C137.327 144.402 137.585 145.388 137.826 146.332C138.752 149.96 139.418 152.925 139.455 155C139.473 156.04 139.331 156.779 139.048 157.254C138.79 157.689 138.386 157.953 137.704 157.991C137.018 158.03 136.24 157.784 135.388 157.228C134.539 156.672 133.647 155.827 132.751 154.723C130.959 152.517 129.197 149.337 127.746 145.578C124.844 138.055 123.233 128.319 125.063 119.618C126.5 112.793 125.997 105.991 124.91 99.677C124.367 96.5196 123.675 93.4777 123.005 90.6145C122.909 90.2058 122.814 89.8009 122.719 89.3999C122.151 86.9865 121.617 84.7151 121.216 82.6071C120.748 80.1481 120.469 77.9414 120.529 76.0255C120.588 74.1111 120.984 72.523 121.835 71.2702C123.518 68.7908 127.157 67.394 134.387 67.7849C140.977 68.6531 143.985 70.486 145.042 72.9842C145.578 74.2492 145.647 75.754 145.348 77.5265C145.048 79.3 144.386 81.3021 143.501 83.5364C142.792 85.3251 141.942 87.2545 141.033 89.3171C137.421 97.5124 132.884 107.808 132.609 119.721Z" fill="#16CE60" stroke="black"/>
<path d="M157.5 160C157.5 164.557 155.916 167.518 153.08 169.463C150.201 171.437 145.971 172.406 140.598 172.793C135.236 173.179 128.816 172.983 121.608 172.688C120.623 172.648 119.624 172.605 118.611 172.563C112.219 172.293 105.281 172 98 172C90.7828 172 83.8114 172.288 77.3223 172.556C76.2273 172.601 75.1462 172.645 74.0798 172.688C66.6849 172.983 60.0141 173.18 54.4009 172.793C48.7758 172.405 44.2908 171.435 41.221 169.455C38.1969 167.504 36.5 164.542 36.5 160C36.5 150.874 43.142 142.508 54.1099 136.395C65.0612 130.291 80.2242 126.5 97 126.5C113.776 126.5 128.939 130.291 139.89 136.395C150.858 142.508 157.5 150.874 157.5 160Z" fill="#16CE60" stroke="black"/>
<path d="M69.7709 81.2186C69.7709 86.1668 65.0405 90.7186 59.7709 90.7186C57.1449 90.7186 54.381 89.584 52.2724 87.804C50.1611 86.0218 48.7709 83.6501 48.7709 81.2186C48.7709 78.6748 49.3752 76.6178 50.8817 75.0471C52.3989 73.4654 54.8991 72.3049 58.8451 71.713C64.8129 70.8179 67.4118 71.8574 68.6106 73.5793C69.2282 74.4664 69.5273 75.6003 69.6642 76.9231C69.7801 78.0439 69.7763 79.2539 69.7724 80.5177C69.7716 80.7496 69.7709 80.9833 69.7709 81.2186Z" fill="white" stroke="black"/>
<circle cx="54" cy="78" r="3.5" fill="black" stroke="black"/>
<path d="M142.563 81.372C141.282 86.1516 135.534 89.3233 130.445 87.959C127.908 87.2791 125.532 85.4676 123.956 83.2023C122.379 80.9342 121.65 78.2835 122.279 75.9349C122.938 73.4779 124.054 71.6475 125.916 70.5204C127.791 69.3854 130.506 68.9118 134.471 69.3618C140.467 70.0423 142.708 71.7193 143.42 73.6928C143.787 74.7096 143.783 75.8822 143.572 77.1955C143.394 78.308 143.077 79.4757 142.746 80.6955C142.685 80.9192 142.624 81.1448 142.563 81.372Z" fill="white" stroke="black"/>
<circle cx="127" cy="76" r="3.5" fill="black" stroke="black"/>
<ellipse cx="67" cy="159" rx="21" ry="9" fill="black"/>
</svg>
