<svg id="Calque_1" data-name="Calque 1" xmlns="http://www.w3.org/2000/svg" viewBox="0 0 469.07 168.31"><defs><style>.cls-1{fill:#fff;stroke:#eec643;stroke-miterlimit:10;stroke-width:3px;}</style></defs><path class="cls-1" d="M491,192l-.07-158.94a7.65,7.65,0,0,0-8.31-7.82,7.45,7.45,0,0,0-5.18,3v0c-.48,1.35-1,2.7-1.48,4,0,.15,0,.3,0,.45l-.05-.27C442.57,120.4,357.58,183,258,183s-184.67-62.46-218-150.4l0,.27c0-.15,0-.3,0-.45-.51-1.34-1-2.69-1.49-4h0a7.46,7.46,0,0,0-5.18-3,7.66,7.66,0,0,0-8.3,7.83L25,192" transform="translate(-23.39 -23.69)"/></svg>